<svg width="279" height="91" viewBox="0 0 279 91" fill="none" xmlns="http://www.w3.org/2000/svg">
<path fill-rule="evenodd" clip-rule="evenodd" d="M259.437 9.90278C260.51 5.64093 257.925 1.31607 253.664 0.242915C249.402 -0.830538 245.077 1.75407 244.004 6.01593C242.93 10.2775 245.515 14.6023 249.777 15.6758C254.038 16.7492 258.363 14.1643 259.437 9.90278ZM267.058 21.4528C264.183 20.7233 261.261 22.4626 260.532 25.3378C259.802 28.213 261.541 31.1349 264.417 31.8644C267.292 32.5939 270.214 30.8546 270.943 27.9794L270.948 27.9613C271.665 25.0906 269.926 22.1804 267.058 21.4528ZM244.552 30.4515C241.676 29.7271 239.931 26.8082 240.656 23.9318C241.38 21.0554 244.299 19.3109 247.175 20.0353C250.052 20.7597 251.796 23.6789 251.072 26.5553C250.348 29.4314 247.428 31.1762 244.552 30.4515ZM228.572 10.4981C224.748 9.53529 220.868 11.854 219.905 15.6776C218.942 19.5008 221.261 23.3811 225.084 24.3442C228.908 25.307 232.788 22.988 233.751 19.1647C234.714 15.3412 232.395 11.4612 228.572 10.4981ZM244.254 71.3675L275.591 46.6299C277.154 45.5658 278.279 43.9711 278.758 42.1413C279.736 38.2557 277.557 34.6612 273.748 31.4903C271.703 33.8235 268.859 35.3078 265.775 35.6512C268.71 37.4767 270.473 39.0653 270.882 40.1382C268.664 41.9366 257.301 43.071 241.102 38.9912C224.903 34.9114 215.396 28.521 214.331 25.8957C215.03 25.354 216.537 24.841 218.818 24.5621C216.97 22.4234 215.801 19.7818 215.462 16.9756C210.836 18.0123 207.392 20.1324 206.443 23.8995C205.977 25.8083 206.241 27.8229 207.184 29.5469L222.879 65.9547C224.04 68.3781 224.318 71.1312 223.663 73.7378L221.056 84.0901C220.664 85.6467 221.608 87.2263 223.165 87.6185L233.729 90.2791C235.286 90.6713 236.866 89.7271 237.257 88.1705L239.853 77.8637C240.514 75.2498 242.071 72.9507 244.254 71.3675Z" fill="#0077E2"/>
<mask id="mask0" mask-type="alpha" maskUnits="userSpaceOnUse" x="0" y="53" width="31" height="34">
<path fill-rule="evenodd" clip-rule="evenodd" d="M0 53.7245H30.224V86.5451H0V53.7245Z" fill="white"/>
</mask>
<g mask="url(#mask0)">
<path fill-rule="evenodd" clip-rule="evenodd" d="M9.26486 77.8243H14.3286L20.2834 86.5451H30.2233L23.1435 76.2299C25.2066 75.23 26.7925 73.847 27.9024 72.0808C29.0118 70.3152 29.567 68.2437 29.567 65.868C29.567 63.3991 28.9726 61.2498 27.7852 59.4209C26.5969 57.5927 24.9091 56.1858 22.7215 55.2013C20.5333 54.2164 17.9544 53.7245 14.9848 53.7245H-0.0187988V86.5451H9.26486V77.8243ZM14.4234 61.0385C16.3297 61.0385 17.7679 61.4605 18.7371 62.3046C19.7056 63.1486 20.1907 64.3369 20.1907 65.868C20.1907 67.3999 19.7056 68.5804 18.7371 69.4079C17.7679 70.2366 16.3297 70.6507 14.4234 70.6507H9.26592V61.0385H14.4234Z" fill="#0077E2"/>
</g>
<path d="M61.4917 79.1551V86.3679H34.4917V53.3679H60.8671V60.5806H43.9082V66.1433H58.8492V73.1205H43.9082V79.1551H61.4917Z" fill="#0077E2"/>
<path d="M66.4917 86.3679H75.4917V53.3679H66.4917V86.3679Z" fill="#0077E2"/>
<path d="M89.3697 85.9561C85.3603 85.0145 82.067 83.7476 79.4917 82.1547L85.032 69.7011C87.4617 71.1015 90.1829 72.2241 93.1968 73.0681C96.2097 73.9129 99.1018 74.3353 101.872 74.3353C104.253 74.3353 105.955 74.1066 106.975 73.6473C107.996 73.1887 108.506 72.5011 108.506 71.5838C108.506 70.5225 107.837 69.7259 106.501 69.1946C105.164 68.6638 102.966 68.0845 99.9036 67.4567C95.9671 66.6365 92.6865 65.7552 90.0621 64.8139C87.4376 63.8724 85.1529 62.3283 83.2097 60.1798C81.2652 58.0327 80.2935 55.1241 80.2935 51.4554C80.2935 48.2695 81.1923 45.3731 82.9908 42.7669C84.7882 40.16 87.4741 38.109 91.0465 36.6125C94.6186 35.1166 98.9559 34.3679 104.059 34.3679C107.558 34.3679 110.996 34.7424 114.375 35.4899C117.752 36.2389 120.728 37.3364 123.305 38.7847L118.129 51.1656C113.122 48.6563 108.384 47.4004 103.913 47.4004C99.4904 47.4004 97.2795 48.4629 97.2795 50.5863C97.2795 51.5999 97.9353 52.3603 99.2474 52.8669C100.56 53.374 102.722 53.917 105.736 54.4963C109.623 55.2202 112.904 56.0527 115.577 56.9939C118.25 57.9354 120.571 59.4682 122.539 61.5919C124.508 63.7165 125.492 66.6128 125.492 70.2804C125.492 73.4662 124.592 76.3512 122.794 78.9326C120.996 81.5156 118.311 83.5665 114.739 85.0873C111.167 86.6075 106.829 87.3679 101.726 87.3679C97.498 87.3679 93.3791 86.8973 89.3697 85.9561Z" fill="#181F48"/>
<path fill-rule="evenodd" clip-rule="evenodd" d="M127.208 35.0724C127.208 37.5033 128.12 39.5082 129.942 41.0872C131.765 42.6674 134.159 43.4566 137.124 43.4566C140.137 43.4566 142.543 42.6433 144.342 41.0143C146.139 39.3861 147.039 37.3083 147.039 34.7803C147.039 32.3998 146.139 30.4552 144.342 28.9479C142.543 27.4422 140.137 26.688 137.124 26.688C134.159 26.688 131.765 27.4784 129.942 29.0574C128.12 30.6372 127.208 32.6425 127.208 35.0724ZM145.362 86.5451H128.885V46.6646H145.362V86.5451Z" fill="#181F48"/>
<path d="M168.909 48.5554H177.578V60.6233H169.419V86.3679H152.955V60.6233H147.492V48.5554H152.955V48.3359C152.955 43.1191 154.509 38.9868 157.617 35.9389C160.725 32.8923 165.096 31.3679 170.73 31.3679C172.575 31.3679 174.373 31.5393 176.121 31.8795C177.869 32.2212 179.326 32.7096 180.492 33.3425L176.558 44.825C175.198 44.1921 173.959 43.8745 172.843 43.8745C171.628 43.8745 170.669 44.2525 169.965 45.0082C169.261 45.7645 168.909 46.9221 168.909 48.4822V48.5554Z" fill="#181F48"/>
<path d="M210.492 85.2358C208.015 86.6571 204.639 87.3679 200.366 87.3679C194.781 87.3679 190.482 86.0077 187.472 83.2873C184.46 80.5667 182.955 76.4855 182.955 71.0445V60.7505H177.492V48.618H182.955V37.3679H199.419V48.618H207.578V60.7505H199.419V70.8974C199.419 72.1232 199.734 73.079 200.366 73.7652C200.996 74.452 201.823 74.7946 202.843 74.7946C204.251 74.7946 205.489 74.427 206.558 73.6916L210.492 85.2358Z" fill="#181F48"/>
</svg>
